<?xml version="1.0" encoding="utf-8" standalone="no"?>
<!DOCTYPE svg PUBLIC "-//W3C//DTD SVG 1.1//EN"
  "http://www.w3.org/Graphics/SVG/1.1/DTD/svg11.dtd">
<svg xmlns:xlink="http://www.w3.org/1999/xlink" width="1273.384458pt" height="850.7847pt" viewBox="0 0 1273.384458 850.7847" xmlns="http://www.w3.org/2000/svg" version="1.1">
 <metadata>
  <rdf:RDF xmlns:dc="http://purl.org/dc/elements/1.1/" xmlns:cc="http://creativecommons.org/ns#" xmlns:rdf="http://www.w3.org/1999/02/22-rdf-syntax-ns#">
   <cc:Work>
    <dc:type rdf:resource="http://purl.org/dc/dcmitype/StillImage"/>
    <dc:date>2025-08-29T14:32:45.211598</dc:date>
    <dc:format>image/svg+xml</dc:format>
    <dc:creator>
     <cc:Agent>
      <dc:title>Matplotlib v3.7.2, https://matplotlib.org/</dc:title>
     </cc:Agent>
    </dc:creator>
   </cc:Work>
  </rdf:RDF>
 </metadata>
 <defs>
  <style type="text/css">*{stroke-linejoin: round; stroke-linecap: butt}</style>
 </defs>
 <g id="figure_1">
  <g id="patch_1">
   <path d="M 0 850.7847 
L 1273.384458 850.7847 
L 1273.384458 0 
L 0 0 
z
" style="fill: #ffffff"/>
  </g>
  <g id="axes_1">
   <g id="patch_2">
    <path d="M 202.613744 75.852788 
C 181.891293 75.852788 161.383587 80.06635 142.339857 88.236805 
C 123.296127 96.407259 106.11107 108.365266 91.831517 123.382401 
C 77.551964 138.399536 66.473871 156.164557 59.272062 175.595304 
C 52.070253 195.026051 48.893992 215.719805 49.936761 236.416004 
C 50.97953 257.112202 56.219716 277.381897 65.338114 295.990358 
C 74.456511 314.598819 87.264133 331.160368 102.9808 344.666157 
C 118.697468 358.171946 136.99744 368.342056 156.765971 374.556972 
C 176.534502 380.771887 197.361871 382.9028 217.979376 380.819905 
L 202.613744 228.723442 
z
" style="fill: #8dd3c7"/>
   </g>
   <g id="patch_3">
    <path d="M 217.979376 380.819905 
C 246.331302 377.955635 273.325455 367.220108 295.90076 349.830706 
C 318.476066 332.441304 335.745672 309.081155 345.751246 282.399248 
L 202.613744 228.723442 
z
" style="fill: #bebada"/>
   </g>
   <g id="patch_4">
    <path d="M 345.751246 282.399248 
C 354.412204 259.303033 357.355755 234.450059 354.329703 209.969653 
C 351.30365 185.489246 342.396958 162.101094 328.372722 141.809024 
L 202.613744 228.723442 
z
" style="fill: #80b1d3"/>
   </g>
   <g id="patch_5">
    <path d="M 328.372722 141.809024 
C 321.756248 132.235456 314.068159 123.448654 305.457973 115.619502 
C 296.847788 107.79035 287.371685 100.969933 277.213958 95.290894 
L 202.613744 228.723442 
z
" style="fill: #b3de69"/>
   </g>
   <g id="patch_6">
    <path d="M 277.213958 95.290894 
C 272.394496 92.596402 267.432588 90.165 262.350052 88.007379 
C 257.267516 85.849759 252.071814 83.969086 246.785793 82.373632 
L 202.613744 228.723442 
z
" style="fill: #d9d9d9"/>
   </g>
   <g id="patch_7">
    <path d="M 246.785793 82.373632 
C 242.868349 81.191249 238.905011 80.166634 234.905354 79.302263 
C 230.905698 78.437892 226.872947 77.734462 222.816849 77.193672 
L 202.613744 228.723442 
z
" style="fill: #ccebc5"/>
   </g>
   <g id="patch_8">
    <path d="M 222.816849 77.193672 
C 219.469101 76.747324 216.10748 76.412042 212.737522 76.188378 
C 209.367564 75.964713 205.99112 75.852788 202.613748 75.852788 
L 202.613744 228.723442 
z
" style="fill: #ffed6f"/>
   </g>
   <g id="matplotlib.axis_1"/>
   <g id="matplotlib.axis_2"/>
   <g id="text_1">
    <!-- ADNI -->
    <g transform="translate(7.2 240.220572) scale(0.11 -0.11)">
     <defs>
      <path id="DejaVuSans-41" d="M 2188 4044 
L 1331 1722 
L 3047 1722 
L 2188 4044 
z
M 1831 4666 
L 2547 4666 
L 4325 0 
L 3669 0 
L 3244 1197 
L 1141 1197 
L 716 0 
L 50 0 
L 1831 4666 
z
" transform="scale(0.015625)"/>
      <path id="DejaVuSans-44" d="M 1259 4147 
L 1259 519 
L 2022 519 
Q 2988 519 3436 956 
Q 3884 1394 3884 2338 
Q 3884 3275 3436 3711 
Q 2988 4147 2022 4147 
L 1259 4147 
z
M 628 4666 
L 1925 4666 
Q 3281 4666 3915 4102 
Q 4550 3538 4550 2338 
Q 4550 1131 3912 565 
Q 3275 0 1925 0 
L 628 0 
L 628 4666 
z
" transform="scale(0.015625)"/>
      <path id="DejaVuSans-4e" d="M 628 4666 
L 1478 4666 
L 3547 763 
L 3547 4666 
L 4159 4666 
L 4159 0 
L 3309 0 
L 1241 3903 
L 1241 0 
L 628 0 
L 628 4666 
z
" transform="scale(0.015625)"/>
      <path id="DejaVuSans-49" d="M 628 4666 
L 1259 4666 
L 1259 0 
L 628 0 
L 628 4666 
z
" transform="scale(0.015625)"/>
     </defs>
     <use xlink:href="#DejaVuSans-41"/>
     <use xlink:href="#DejaVuSans-44" x="68.408203"/>
     <use xlink:href="#DejaVuSans-4e" x="145.410156"/>
     <use xlink:href="#DejaVuSans-49" x="220.214844"/>
    </g>
   </g>
   <g id="text_2">
    <!-- 51.6% -->
    <g style="fill: #ffffff" transform="translate(93.66146 236.098354) scale(0.1 -0.1)">
     <defs>
      <path id="DejaVuSans-Bold-35" d="M 678 4666 
L 3669 4666 
L 3669 3781 
L 1638 3781 
L 1638 3059 
Q 1775 3097 1914 3117 
Q 2053 3138 2203 3138 
Q 3056 3138 3531 2711 
Q 4006 2284 4006 1522 
Q 4006 766 3489 337 
Q 2972 -91 2053 -91 
Q 1656 -91 1267 -14 
Q 878 63 494 219 
L 494 1166 
Q 875 947 1217 837 
Q 1559 728 1863 728 
Q 2300 728 2551 942 
Q 2803 1156 2803 1522 
Q 2803 1891 2551 2103 
Q 2300 2316 1863 2316 
Q 1603 2316 1309 2248 
Q 1016 2181 678 2041 
L 678 4666 
z
" transform="scale(0.015625)"/>
      <path id="DejaVuSans-Bold-31" d="M 750 831 
L 1813 831 
L 1813 3847 
L 722 3622 
L 722 4441 
L 1806 4666 
L 2950 4666 
L 2950 831 
L 4013 831 
L 4013 0 
L 750 0 
L 750 831 
z
" transform="scale(0.015625)"/>
      <path id="DejaVuSans-Bold-2e" d="M 653 1209 
L 1778 1209 
L 1778 0 
L 653 0 
L 653 1209 
z
" transform="scale(0.015625)"/>
      <path id="DejaVuSans-Bold-36" d="M 2316 2303 
Q 2000 2303 1842 2098 
Q 1684 1894 1684 1484 
Q 1684 1075 1842 870 
Q 2000 666 2316 666 
Q 2634 666 2792 870 
Q 2950 1075 2950 1484 
Q 2950 1894 2792 2098 
Q 2634 2303 2316 2303 
z
M 3803 4544 
L 3803 3681 
Q 3506 3822 3243 3889 
Q 2981 3956 2731 3956 
Q 2194 3956 1894 3657 
Q 1594 3359 1544 2772 
Q 1750 2925 1990 3001 
Q 2231 3078 2516 3078 
Q 3231 3078 3670 2659 
Q 4109 2241 4109 1563 
Q 4109 813 3618 361 
Q 3128 -91 2303 -91 
Q 1394 -91 895 523 
Q 397 1138 397 2266 
Q 397 3422 980 4083 
Q 1563 4744 2578 4744 
Q 2900 4744 3203 4694 
Q 3506 4644 3803 4544 
z
" transform="scale(0.015625)"/>
      <path id="DejaVuSans-Bold-25" d="M 4959 1925 
Q 4738 1925 4616 1733 
Q 4494 1541 4494 1184 
Q 4494 825 4614 633 
Q 4734 441 4959 441 
Q 5184 441 5303 633 
Q 5422 825 5422 1184 
Q 5422 1541 5301 1733 
Q 5181 1925 4959 1925 
z
M 4959 2450 
Q 5541 2450 5875 2112 
Q 6209 1775 6209 1184 
Q 6209 594 5875 251 
Q 5541 -91 4959 -91 
Q 4378 -91 4042 251 
Q 3706 594 3706 1184 
Q 3706 1772 4042 2111 
Q 4378 2450 4959 2450 
z
M 2094 -91 
L 1403 -91 
L 4319 4750 
L 5013 4750 
L 2094 -91 
z
M 1453 4750 
Q 2034 4750 2367 4411 
Q 2700 4072 2700 3481 
Q 2700 2891 2367 2550 
Q 2034 2209 1453 2209 
Q 872 2209 539 2550 
Q 206 2891 206 3481 
Q 206 4072 539 4411 
Q 872 4750 1453 4750 
z
M 1453 4225 
Q 1228 4225 1106 4031 
Q 984 3838 984 3481 
Q 984 3122 1106 2926 
Q 1228 2731 1453 2731 
Q 1678 2731 1798 2926 
Q 1919 3122 1919 3481 
Q 1919 3838 1797 4031 
Q 1675 4225 1453 4225 
z
" transform="scale(0.015625)"/>
     </defs>
     <use xlink:href="#DejaVuSans-Bold-35"/>
     <use xlink:href="#DejaVuSans-Bold-31" x="69.580078"/>
     <use xlink:href="#DejaVuSans-Bold-2e" x="139.160156"/>
     <use xlink:href="#DejaVuSans-Bold-36" x="177.148438"/>
     <use xlink:href="#DejaVuSans-Bold-25" x="246.728516"/>
    </g>
   </g>
   <g id="text_3">
    <!-- OASIS -->
    <g transform="translate(305.229462 364.976745) scale(0.11 -0.11)">
     <defs>
      <path id="DejaVuSans-4f" d="M 2522 4238 
Q 1834 4238 1429 3725 
Q 1025 3213 1025 2328 
Q 1025 1447 1429 934 
Q 1834 422 2522 422 
Q 3209 422 3611 934 
Q 4013 1447 4013 2328 
Q 4013 3213 3611 3725 
Q 3209 4238 2522 4238 
z
M 2522 4750 
Q 3503 4750 4090 4092 
Q 4678 3434 4678 2328 
Q 4678 1225 4090 567 
Q 3503 -91 2522 -91 
Q 1538 -91 948 565 
Q 359 1222 359 2328 
Q 359 3434 948 4092 
Q 1538 4750 2522 4750 
z
" transform="scale(0.015625)"/>
      <path id="DejaVuSans-53" d="M 3425 4513 
L 3425 3897 
Q 3066 4069 2747 4153 
Q 2428 4238 2131 4238 
Q 1616 4238 1336 4038 
Q 1056 3838 1056 3469 
Q 1056 3159 1242 3001 
Q 1428 2844 1947 2747 
L 2328 2669 
Q 3034 2534 3370 2195 
Q 3706 1856 3706 1288 
Q 3706 609 3251 259 
Q 2797 -91 1919 -91 
Q 1588 -91 1214 -16 
Q 841 59 441 206 
L 441 856 
Q 825 641 1194 531 
Q 1563 422 1919 422 
Q 2459 422 2753 634 
Q 3047 847 3047 1241 
Q 3047 1584 2836 1778 
Q 2625 1972 2144 2069 
L 1759 2144 
Q 1053 2284 737 2584 
Q 422 2884 422 3419 
Q 422 4038 858 4394 
Q 1294 4750 2059 4750 
Q 2388 4750 2728 4690 
Q 3069 4631 3425 4513 
z
" transform="scale(0.015625)"/>
     </defs>
     <use xlink:href="#DejaVuSans-4f"/>
     <use xlink:href="#DejaVuSans-41" x="76.960938"/>
     <use xlink:href="#DejaVuSans-53" x="145.369141"/>
     <use xlink:href="#DejaVuSans-49" x="208.845703"/>
     <use xlink:href="#DejaVuSans-53" x="238.337891"/>
    </g>
   </g>
   <g id="text_4">
    <!-- 17.7% -->
    <g style="fill: #ffffff" transform="translate(241.23986 304.147175) scale(0.1 -0.1)">
     <defs>
      <path id="DejaVuSans-Bold-37" d="M 428 4666 
L 3944 4666 
L 3944 3988 
L 2125 0 
L 953 0 
L 2675 3781 
L 428 3781 
L 428 4666 
z
" transform="scale(0.015625)"/>
     </defs>
     <use xlink:href="#DejaVuSans-Bold-31"/>
     <use xlink:href="#DejaVuSans-Bold-37" x="69.580078"/>
     <use xlink:href="#DejaVuSans-Bold-2e" x="139.160156"/>
     <use xlink:href="#DejaVuSans-Bold-37" x="177.148438"/>
     <use xlink:href="#DejaVuSans-Bold-25" x="246.728516"/>
    </g>
   </g>
   <g id="text_5">
    <!-- CARDIA -->
    <g transform="translate(369.501298 211.129586) scale(0.11 -0.11)">
     <defs>
      <path id="DejaVuSans-43" d="M 4122 4306 
L 4122 3641 
Q 3803 3938 3442 4084 
Q 3081 4231 2675 4231 
Q 1875 4231 1450 3742 
Q 1025 3253 1025 2328 
Q 1025 1406 1450 917 
Q 1875 428 2675 428 
Q 3081 428 3442 575 
Q 3803 722 4122 1019 
L 4122 359 
Q 3791 134 3420 21 
Q 3050 -91 2638 -91 
Q 1578 -91 968 557 
Q 359 1206 359 2328 
Q 359 3453 968 4101 
Q 1578 4750 2638 4750 
Q 3056 4750 3426 4639 
Q 3797 4528 4122 4306 
z
" transform="scale(0.015625)"/>
      <path id="DejaVuSans-52" d="M 2841 2188 
Q 3044 2119 3236 1894 
Q 3428 1669 3622 1275 
L 4263 0 
L 3584 0 
L 2988 1197 
Q 2756 1666 2539 1819 
Q 2322 1972 1947 1972 
L 1259 1972 
L 1259 0 
L 628 0 
L 628 4666 
L 2053 4666 
Q 2853 4666 3247 4331 
Q 3641 3997 3641 3322 
Q 3641 2881 3436 2590 
Q 3231 2300 2841 2188 
z
M 1259 4147 
L 1259 2491 
L 2053 2491 
Q 2509 2491 2742 2702 
Q 2975 2913 2975 3322 
Q 2975 3731 2742 3939 
Q 2509 4147 2053 4147 
L 1259 4147 
z
" transform="scale(0.015625)"/>
     </defs>
     <use xlink:href="#DejaVuSans-43"/>
     <use xlink:href="#DejaVuSans-41" x="69.824219"/>
     <use xlink:href="#DejaVuSans-52" x="138.232422"/>
     <use xlink:href="#DejaVuSans-44" x="207.714844"/>
     <use xlink:href="#DejaVuSans-49" x="284.716797"/>
     <use xlink:href="#DejaVuSans-41" x="314.208984"/>
    </g>
   </g>
   <g id="text_6">
    <!-- 15.3% -->
    <g style="fill: #ffffff" transform="translate(276.297225 220.230543) scale(0.1 -0.1)">
     <defs>
      <path id="DejaVuSans-Bold-33" d="M 2981 2516 
Q 3453 2394 3698 2092 
Q 3944 1791 3944 1325 
Q 3944 631 3412 270 
Q 2881 -91 1863 -91 
Q 1503 -91 1142 -33 
Q 781 25 428 141 
L 428 1069 
Q 766 900 1098 814 
Q 1431 728 1753 728 
Q 2231 728 2486 893 
Q 2741 1059 2741 1369 
Q 2741 1688 2480 1852 
Q 2219 2016 1709 2016 
L 1228 2016 
L 1228 2791 
L 1734 2791 
Q 2188 2791 2409 2933 
Q 2631 3075 2631 3366 
Q 2631 3634 2415 3781 
Q 2200 3928 1806 3928 
Q 1516 3928 1219 3862 
Q 922 3797 628 3669 
L 628 4550 
Q 984 4650 1334 4700 
Q 1684 4750 2022 4750 
Q 2931 4750 3382 4451 
Q 3834 4153 3834 3553 
Q 3834 3144 3618 2883 
Q 3403 2622 2981 2516 
z
" transform="scale(0.015625)"/>
     </defs>
     <use xlink:href="#DejaVuSans-Bold-31"/>
     <use xlink:href="#DejaVuSans-Bold-35" x="69.580078"/>
     <use xlink:href="#DejaVuSans-Bold-2e" x="139.160156"/>
     <use xlink:href="#DejaVuSans-Bold-33" x="177.148438"/>
     <use xlink:href="#DejaVuSans-Bold-25" x="246.728516"/>
    </g>
   </g>
   <g id="text_7">
    <!-- HABS -->
    <g transform="translate(315.742396 107.344421) scale(0.11 -0.11)">
     <defs>
      <path id="DejaVuSans-48" d="M 628 4666 
L 1259 4666 
L 1259 2753 
L 3553 2753 
L 3553 4666 
L 4184 4666 
L 4184 0 
L 3553 0 
L 3553 2222 
L 1259 2222 
L 1259 0 
L 628 0 
L 628 4666 
z
" transform="scale(0.015625)"/>
      <path id="DejaVuSans-42" d="M 1259 2228 
L 1259 519 
L 2272 519 
Q 2781 519 3026 730 
Q 3272 941 3272 1375 
Q 3272 1813 3026 2020 
Q 2781 2228 2272 2228 
L 1259 2228 
z
M 1259 4147 
L 1259 2741 
L 2194 2741 
Q 2656 2741 2882 2914 
Q 3109 3088 3109 3444 
Q 3109 3797 2882 3972 
Q 2656 4147 2194 4147 
L 1259 4147 
z
M 628 4666 
L 2241 4666 
Q 2963 4666 3353 4366 
Q 3744 4066 3744 3513 
Q 3744 3084 3544 2831 
Q 3344 2578 2956 2516 
Q 3422 2416 3680 2098 
Q 3938 1781 3938 1306 
Q 3938 681 3513 340 
Q 3088 0 2303 0 
L 628 0 
L 628 4666 
z
" transform="scale(0.015625)"/>
     </defs>
     <use xlink:href="#DejaVuSans-48"/>
     <use xlink:href="#DejaVuSans-41" x="75.195312"/>
     <use xlink:href="#DejaVuSans-42" x="143.603516"/>
     <use xlink:href="#DejaVuSans-53" x="210.457031"/>
    </g>
   </g>
   <g id="text_8">
    <!-- 7.3% -->
    <g style="fill: #ffffff" transform="translate(250.453094 163.620453) scale(0.1 -0.1)">
     <use xlink:href="#DejaVuSans-Bold-37"/>
     <use xlink:href="#DejaVuSans-Bold-2e" x="69.580078"/>
     <use xlink:href="#DejaVuSans-Bold-33" x="107.568359"/>
     <use xlink:href="#DejaVuSans-Bold-25" x="177.148438"/>
    </g>
   </g>
   <g id="text_9">
    <!-- PENN -->
    <g transform="translate(268.323683 76.971086) scale(0.11 -0.11)">
     <defs>
      <path id="DejaVuSans-50" d="M 1259 4147 
L 1259 2394 
L 2053 2394 
Q 2494 2394 2734 2622 
Q 2975 2850 2975 3272 
Q 2975 3691 2734 3919 
Q 2494 4147 2053 4147 
L 1259 4147 
z
M 628 4666 
L 2053 4666 
Q 2838 4666 3239 4311 
Q 3641 3956 3641 3272 
Q 3641 2581 3239 2228 
Q 2838 1875 2053 1875 
L 1259 1875 
L 1259 0 
L 628 0 
L 628 4666 
z
" transform="scale(0.015625)"/>
      <path id="DejaVuSans-45" d="M 628 4666 
L 3578 4666 
L 3578 4134 
L 1259 4134 
L 1259 2753 
L 3481 2753 
L 3481 2222 
L 1259 2222 
L 1259 531 
L 3634 531 
L 3634 0 
L 628 0 
L 628 4666 
z
" transform="scale(0.015625)"/>
     </defs>
     <use xlink:href="#DejaVuSans-50"/>
     <use xlink:href="#DejaVuSans-45" x="60.302734"/>
     <use xlink:href="#DejaVuSans-4e" x="123.486328"/>
     <use xlink:href="#DejaVuSans-4e" x="198.291016"/>
    </g>
   </g>
   <g id="text_10">
    <!-- 3.4% -->
    <g style="fill: #ffffff" transform="translate(224.588341 147.053179) scale(0.1 -0.1)">
     <defs>
      <path id="DejaVuSans-Bold-34" d="M 2356 3675 
L 1038 1722 
L 2356 1722 
L 2356 3675 
z
M 2156 4666 
L 3494 4666 
L 3494 1722 
L 4159 1722 
L 4159 850 
L 3494 850 
L 3494 0 
L 2356 0 
L 2356 850 
L 288 850 
L 288 1881 
L 2156 4666 
z
" transform="scale(0.015625)"/>
     </defs>
     <use xlink:href="#DejaVuSans-Bold-33"/>
     <use xlink:href="#DejaVuSans-Bold-2e" x="69.580078"/>
     <use xlink:href="#DejaVuSans-Bold-34" x="107.568359"/>
     <use xlink:href="#DejaVuSans-Bold-25" x="177.148438"/>
    </g>
   </g>
   <g id="text_11">
    <!-- AIBL -->
    <g transform="translate(238.134515 67.395458) scale(0.11 -0.11)">
     <defs>
      <path id="DejaVuSans-4c" d="M 628 4666 
L 1259 4666 
L 1259 531 
L 3531 531 
L 3531 0 
L 628 0 
L 628 4666 
z
" transform="scale(0.015625)"/>
     </defs>
     <use xlink:href="#DejaVuSans-41"/>
     <use xlink:href="#DejaVuSans-49" x="68.408203"/>
     <use xlink:href="#DejaVuSans-42" x="97.900391"/>
     <use xlink:href="#DejaVuSans-4c" x="166.503906"/>
    </g>
   </g>
   <g id="text_12">
    <!-- 2.6% -->
    <g style="fill: #ffffff" transform="translate(208.121523 141.83011) scale(0.1 -0.1)">
     <defs>
      <path id="DejaVuSans-Bold-32" d="M 1844 884 
L 3897 884 
L 3897 0 
L 506 0 
L 506 884 
L 2209 2388 
Q 2438 2594 2547 2791 
Q 2656 2988 2656 3200 
Q 2656 3528 2436 3728 
Q 2216 3928 1850 3928 
Q 1569 3928 1234 3808 
Q 900 3688 519 3450 
L 519 4475 
Q 925 4609 1322 4679 
Q 1719 4750 2100 4750 
Q 2938 4750 3402 4381 
Q 3866 4013 3866 3353 
Q 3866 2972 3669 2642 
Q 3472 2313 2841 1759 
L 1844 884 
z
" transform="scale(0.015625)"/>
     </defs>
     <use xlink:href="#DejaVuSans-Bold-32"/>
     <use xlink:href="#DejaVuSans-Bold-2e" x="69.580078"/>
     <use xlink:href="#DejaVuSans-Bold-36" x="107.568359"/>
     <use xlink:href="#DejaVuSans-Bold-25" x="177.148438"/>
    </g>
   </g>
   <g id="text_13">
    <!-- BLSA -->
    <g transform="translate(213.7499 63.970184) scale(0.11 -0.11)">
     <use xlink:href="#DejaVuSans-42"/>
     <use xlink:href="#DejaVuSans-4c" x="68.603516"/>
     <use xlink:href="#DejaVuSans-53" x="124.316406"/>
     <use xlink:href="#DejaVuSans-41" x="189.667969"/>
    </g>
   </g>
   <g id="text_14">
    <!-- 2.1% -->
    <g style="fill: #ffffff" transform="translate(194.820823 139.961778) scale(0.1 -0.1)">
     <use xlink:href="#DejaVuSans-Bold-32"/>
     <use xlink:href="#DejaVuSans-Bold-2e" x="69.580078"/>
     <use xlink:href="#DejaVuSans-Bold-31" x="107.568359"/>
     <use xlink:href="#DejaVuSans-Bold-25" x="177.148438"/>
    </g>
   </g>
   <g id="text_15">
    <!-- Hippocampus (ROI 17) -->
    <g transform="translate(120.55226 17.077969) scale(0.13 -0.13)">
     <defs>
      <path id="DejaVuSans-Bold-48" d="M 588 4666 
L 1791 4666 
L 1791 2888 
L 3566 2888 
L 3566 4666 
L 4769 4666 
L 4769 0 
L 3566 0 
L 3566 1978 
L 1791 1978 
L 1791 0 
L 588 0 
L 588 4666 
z
" transform="scale(0.015625)"/>
      <path id="DejaVuSans-Bold-69" d="M 538 3500 
L 1656 3500 
L 1656 0 
L 538 0 
L 538 3500 
z
M 538 4863 
L 1656 4863 
L 1656 3950 
L 538 3950 
L 538 4863 
z
" transform="scale(0.015625)"/>
      <path id="DejaVuSans-Bold-70" d="M 1656 506 
L 1656 -1331 
L 538 -1331 
L 538 3500 
L 1656 3500 
L 1656 2988 
Q 1888 3294 2169 3439 
Q 2450 3584 2816 3584 
Q 3463 3584 3878 3070 
Q 4294 2556 4294 1747 
Q 4294 938 3878 423 
Q 3463 -91 2816 -91 
Q 2450 -91 2169 54 
Q 1888 200 1656 506 
z
M 2400 2772 
Q 2041 2772 1848 2508 
Q 1656 2244 1656 1747 
Q 1656 1250 1848 986 
Q 2041 722 2400 722 
Q 2759 722 2948 984 
Q 3138 1247 3138 1747 
Q 3138 2247 2948 2509 
Q 2759 2772 2400 2772 
z
" transform="scale(0.015625)"/>
      <path id="DejaVuSans-Bold-6f" d="M 2203 2784 
Q 1831 2784 1636 2517 
Q 1441 2250 1441 1747 
Q 1441 1244 1636 976 
Q 1831 709 2203 709 
Q 2569 709 2762 976 
Q 2956 1244 2956 1747 
Q 2956 2250 2762 2517 
Q 2569 2784 2203 2784 
z
M 2203 3584 
Q 3106 3584 3614 3096 
Q 4122 2609 4122 1747 
Q 4122 884 3614 396 
Q 3106 -91 2203 -91 
Q 1297 -91 786 396 
Q 275 884 275 1747 
Q 275 2609 786 3096 
Q 1297 3584 2203 3584 
z
" transform="scale(0.015625)"/>
      <path id="DejaVuSans-Bold-63" d="M 3366 3391 
L 3366 2478 
Q 3138 2634 2908 2709 
Q 2678 2784 2431 2784 
Q 1963 2784 1702 2511 
Q 1441 2238 1441 1747 
Q 1441 1256 1702 982 
Q 1963 709 2431 709 
Q 2694 709 2930 787 
Q 3166 866 3366 1019 
L 3366 103 
Q 3103 6 2833 -42 
Q 2563 -91 2291 -91 
Q 1344 -91 809 395 
Q 275 881 275 1747 
Q 275 2613 809 3098 
Q 1344 3584 2291 3584 
Q 2566 3584 2833 3536 
Q 3100 3488 3366 3391 
z
" transform="scale(0.015625)"/>
      <path id="DejaVuSans-Bold-61" d="M 2106 1575 
Q 1756 1575 1579 1456 
Q 1403 1338 1403 1106 
Q 1403 894 1545 773 
Q 1688 653 1941 653 
Q 2256 653 2472 879 
Q 2688 1106 2688 1447 
L 2688 1575 
L 2106 1575 
z
M 3816 1997 
L 3816 0 
L 2688 0 
L 2688 519 
Q 2463 200 2181 54 
Q 1900 -91 1497 -91 
Q 953 -91 614 226 
Q 275 544 275 1050 
Q 275 1666 698 1953 
Q 1122 2241 2028 2241 
L 2688 2241 
L 2688 2328 
Q 2688 2594 2478 2717 
Q 2269 2841 1825 2841 
Q 1466 2841 1156 2769 
Q 847 2697 581 2553 
L 581 3406 
Q 941 3494 1303 3539 
Q 1666 3584 2028 3584 
Q 2975 3584 3395 3211 
Q 3816 2838 3816 1997 
z
" transform="scale(0.015625)"/>
      <path id="DejaVuSans-Bold-6d" d="M 3781 2919 
Q 3994 3244 4286 3414 
Q 4578 3584 4928 3584 
Q 5531 3584 5847 3212 
Q 6163 2841 6163 2131 
L 6163 0 
L 5038 0 
L 5038 1825 
Q 5041 1866 5042 1909 
Q 5044 1953 5044 2034 
Q 5044 2406 4934 2573 
Q 4825 2741 4581 2741 
Q 4263 2741 4089 2478 
Q 3916 2216 3909 1719 
L 3909 0 
L 2784 0 
L 2784 1825 
Q 2784 2406 2684 2573 
Q 2584 2741 2328 2741 
Q 2006 2741 1831 2477 
Q 1656 2213 1656 1722 
L 1656 0 
L 531 0 
L 531 3500 
L 1656 3500 
L 1656 2988 
Q 1863 3284 2130 3434 
Q 2397 3584 2719 3584 
Q 3081 3584 3359 3409 
Q 3638 3234 3781 2919 
z
" transform="scale(0.015625)"/>
      <path id="DejaVuSans-Bold-75" d="M 500 1363 
L 500 3500 
L 1625 3500 
L 1625 3150 
Q 1625 2866 1622 2436 
Q 1619 2006 1619 1863 
Q 1619 1441 1641 1255 
Q 1663 1069 1716 984 
Q 1784 875 1895 815 
Q 2006 756 2150 756 
Q 2500 756 2700 1025 
Q 2900 1294 2900 1772 
L 2900 3500 
L 4019 3500 
L 4019 0 
L 2900 0 
L 2900 506 
Q 2647 200 2364 54 
Q 2081 -91 1741 -91 
Q 1134 -91 817 281 
Q 500 653 500 1363 
z
" transform="scale(0.015625)"/>
      <path id="DejaVuSans-Bold-73" d="M 3272 3391 
L 3272 2541 
Q 2913 2691 2578 2766 
Q 2244 2841 1947 2841 
Q 1628 2841 1473 2761 
Q 1319 2681 1319 2516 
Q 1319 2381 1436 2309 
Q 1553 2238 1856 2203 
L 2053 2175 
Q 2913 2066 3209 1816 
Q 3506 1566 3506 1031 
Q 3506 472 3093 190 
Q 2681 -91 1863 -91 
Q 1516 -91 1145 -36 
Q 775 19 384 128 
L 384 978 
Q 719 816 1070 734 
Q 1422 653 1784 653 
Q 2113 653 2278 743 
Q 2444 834 2444 1013 
Q 2444 1163 2330 1236 
Q 2216 1309 1875 1350 
L 1678 1375 
Q 931 1469 631 1722 
Q 331 1975 331 2491 
Q 331 3047 712 3315 
Q 1094 3584 1881 3584 
Q 2191 3584 2531 3537 
Q 2872 3491 3272 3391 
z
" transform="scale(0.015625)"/>
      <path id="DejaVuSans-Bold-20" transform="scale(0.015625)"/>
      <path id="DejaVuSans-Bold-28" d="M 2413 -844 
L 1484 -844 
Q 1006 -72 778 623 
Q 550 1319 550 2003 
Q 550 2688 779 3389 
Q 1009 4091 1484 4856 
L 2413 4856 
Q 2013 4116 1813 3408 
Q 1613 2700 1613 2009 
Q 1613 1319 1811 609 
Q 2009 -100 2413 -844 
z
" transform="scale(0.015625)"/>
      <path id="DejaVuSans-Bold-52" d="M 2297 2597 
Q 2675 2597 2839 2737 
Q 3003 2878 3003 3200 
Q 3003 3519 2839 3656 
Q 2675 3794 2297 3794 
L 1791 3794 
L 1791 2597 
L 2297 2597 
z
M 1791 1766 
L 1791 0 
L 588 0 
L 588 4666 
L 2425 4666 
Q 3347 4666 3776 4356 
Q 4206 4047 4206 3378 
Q 4206 2916 3982 2619 
Q 3759 2322 3309 2181 
Q 3556 2125 3751 1926 
Q 3947 1728 4147 1325 
L 4800 0 
L 3519 0 
L 2950 1159 
Q 2778 1509 2601 1637 
Q 2425 1766 2131 1766 
L 1791 1766 
z
" transform="scale(0.015625)"/>
      <path id="DejaVuSans-Bold-4f" d="M 2719 3878 
Q 2169 3878 1866 3472 
Q 1563 3066 1563 2328 
Q 1563 1594 1866 1187 
Q 2169 781 2719 781 
Q 3272 781 3575 1187 
Q 3878 1594 3878 2328 
Q 3878 3066 3575 3472 
Q 3272 3878 2719 3878 
z
M 2719 4750 
Q 3844 4750 4481 4106 
Q 5119 3463 5119 2328 
Q 5119 1197 4481 553 
Q 3844 -91 2719 -91 
Q 1597 -91 958 553 
Q 319 1197 319 2328 
Q 319 3463 958 4106 
Q 1597 4750 2719 4750 
z
" transform="scale(0.015625)"/>
      <path id="DejaVuSans-Bold-49" d="M 588 4666 
L 1791 4666 
L 1791 0 
L 588 0 
L 588 4666 
z
" transform="scale(0.015625)"/>
      <path id="DejaVuSans-Bold-29" d="M 513 -844 
Q 913 -100 1113 609 
Q 1313 1319 1313 2009 
Q 1313 2700 1113 3408 
Q 913 4116 513 4856 
L 1441 4856 
Q 1916 4091 2145 3389 
Q 2375 2688 2375 2003 
Q 2375 1319 2147 623 
Q 1919 -72 1441 -844 
L 513 -844 
z
" transform="scale(0.015625)"/>
     </defs>
     <use xlink:href="#DejaVuSans-Bold-48"/>
     <use xlink:href="#DejaVuSans-Bold-69" x="83.691406"/>
     <use xlink:href="#DejaVuSans-Bold-70" x="117.96875"/>
     <use xlink:href="#DejaVuSans-Bold-70" x="189.550781"/>
     <use xlink:href="#DejaVuSans-Bold-6f" x="261.132812"/>
     <use xlink:href="#DejaVuSans-Bold-63" x="329.833984"/>
     <use xlink:href="#DejaVuSans-Bold-61" x="389.111328"/>
     <use xlink:href="#DejaVuSans-Bold-6d" x="456.591797"/>
     <use xlink:href="#DejaVuSans-Bold-70" x="560.791016"/>
     <use xlink:href="#DejaVuSans-Bold-75" x="632.373047"/>
     <use xlink:href="#DejaVuSans-Bold-73" x="703.564453"/>
     <use xlink:href="#DejaVuSans-Bold-20" x="763.085938"/>
     <use xlink:href="#DejaVuSans-Bold-28" x="797.900391"/>
     <use xlink:href="#DejaVuSans-Bold-52" x="843.603516"/>
     <use xlink:href="#DejaVuSans-Bold-4f" x="920.605469"/>
     <use xlink:href="#DejaVuSans-Bold-49" x="1005.615234"/>
     <use xlink:href="#DejaVuSans-Bold-20" x="1042.822266"/>
     <use xlink:href="#DejaVuSans-Bold-31" x="1077.636719"/>
     <use xlink:href="#DejaVuSans-Bold-37" x="1147.216797"/>
     <use xlink:href="#DejaVuSans-Bold-29" x="1216.796875"/>
    </g>
    <!-- (n=2465) -->
    <g transform="translate(168.508041 31.635125) scale(0.13 -0.13)">
     <defs>
      <path id="DejaVuSans-Bold-6e" d="M 4056 2131 
L 4056 0 
L 2931 0 
L 2931 347 
L 2931 1631 
Q 2931 2084 2911 2256 
Q 2891 2428 2841 2509 
Q 2775 2619 2662 2680 
Q 2550 2741 2406 2741 
Q 2056 2741 1856 2470 
Q 1656 2200 1656 1722 
L 1656 0 
L 538 0 
L 538 3500 
L 1656 3500 
L 1656 2988 
Q 1909 3294 2193 3439 
Q 2478 3584 2822 3584 
Q 3428 3584 3742 3212 
Q 4056 2841 4056 2131 
z
" transform="scale(0.015625)"/>
      <path id="DejaVuSans-Bold-3d" d="M 678 3084 
L 4684 3084 
L 4684 2350 
L 678 2350 
L 678 3084 
z
M 678 1663 
L 4684 1663 
L 4684 922 
L 678 922 
L 678 1663 
z
" transform="scale(0.015625)"/>
     </defs>
     <use xlink:href="#DejaVuSans-Bold-28"/>
     <use xlink:href="#DejaVuSans-Bold-6e" x="45.703125"/>
     <use xlink:href="#DejaVuSans-Bold-3d" x="116.894531"/>
     <use xlink:href="#DejaVuSans-Bold-32" x="200.683594"/>
     <use xlink:href="#DejaVuSans-Bold-34" x="270.263672"/>
     <use xlink:href="#DejaVuSans-Bold-36" x="339.84375"/>
     <use xlink:href="#DejaVuSans-Bold-35" x="409.423828"/>
     <use xlink:href="#DejaVuSans-Bold-29" x="479.003906"/>
    </g>
   </g>
  </g>
  <g id="axes_2">
   <g id="patch_9">
    <path d="M 630.582323 75.852788 
C 609.581008 75.852788 588.803241 80.180518 569.548372 88.56534 
C 550.293502 96.950162 532.971447 109.213572 518.66545 124.588672 
C 504.359453 139.963771 493.374075 158.12324 486.396291 177.931464 
C 479.418508 197.739689 476.596869 218.774974 478.107829 239.721865 
C 479.618788 260.668755 485.430178 281.081315 495.178581 299.683032 
C 504.926984 318.284749 518.404865 334.679612 534.769379 347.842359 
C 551.133893 361.005107 570.036655 370.655517 590.29557 376.190097 
C 610.554486 381.724676 631.738264 383.025599 652.522164 380.011512 
L 630.582323 228.723442 
z
" style="fill: #8dd3c7"/>
   </g>
   <g id="patch_10">
    <path d="M 652.522164 380.011512 
C 681.050954 375.874258 707.83596 363.750553 729.771256 345.046235 
C 751.706551 326.341917 767.91019 301.809023 776.503236 274.292332 
L 630.582323 228.723442 
z
" style="fill: #bebada"/>
   </g>
   <g id="patch_11">
    <path d="M 776.503236 274.292332 
C 783.816817 250.87275 785.385952 226.033048 781.077601 201.879302 
C 776.76925 177.725557 766.708717 154.960262 751.749002 135.513612 
L 630.582323 228.723442 
z
" style="fill: #80b1d3"/>
   </g>
   <g id="patch_12">
    <path d="M 751.749002 135.513612 
C 745.090189 126.85759 737.522939 118.939983 729.176942 111.896486 
C 720.830946 104.852988 711.754155 98.72407 702.102132 93.614769 
L 630.582323 228.723442 
z
" style="fill: #b3de69"/>
   </g>
   <g id="patch_13">
    <path d="M 702.102132 93.614769 
C 697.509317 91.183561 692.795521 88.988123 687.979105 87.037006 
C 683.162689 85.085889 678.249916 83.381631 673.259925 81.930871 
L 630.582323 228.723442 
z
" style="fill: #d9d9d9"/>
   </g>
   <g id="patch_14">
    <path d="M 673.259925 81.930871 
C 669.143467 80.734076 664.978488 79.710966 660.776034 78.864253 
C 656.573579 78.01754 652.337368 77.347974 648.078634 76.85733 
L 630.582323 228.723442 
z
" style="fill: #ccebc5"/>
   </g>
   <g id="patch_15">
    <path d="M 648.078634 76.85733 
C 645.175181 76.522827 642.262732 76.271657 639.344878 76.10413 
C 636.427025 75.936603 633.504967 75.852788 630.582308 75.852788 
L 630.582323 228.723442 
z
" style="fill: #ffed6f"/>
   </g>
   <g id="matplotlib.axis_3"/>
   <g id="matplotlib.axis_4"/>
   <g id="text_16">
    <!-- ADNI -->
    <g transform="translate(435.391317 243.857019) scale(0.11 -0.11)">
     <use xlink:href="#DejaVuSans-41"/>
     <use xlink:href="#DejaVuSans-44" x="68.408203"/>
     <use xlink:href="#DejaVuSans-4e" x="145.410156"/>
     <use xlink:href="#DejaVuSans-49" x="220.214844"/>
    </g>
   </g>
   <g id="text_17">
    <!-- 52.3% -->
    <g style="fill: #ffffff" transform="translate(521.751532 238.08187) scale(0.1 -0.1)">
     <use xlink:href="#DejaVuSans-Bold-35"/>
     <use xlink:href="#DejaVuSans-Bold-32" x="69.580078"/>
     <use xlink:href="#DejaVuSans-Bold-2e" x="139.160156"/>
     <use xlink:href="#DejaVuSans-Bold-33" x="177.148438"/>
     <use xlink:href="#DejaVuSans-Bold-25" x="246.728516"/>
    </g>
   </g>
   <g id="text_18">
    <!-- OASIS -->
    <g transform="translate(739.690149 359.713827) scale(0.11 -0.11)">
     <use xlink:href="#DejaVuSans-4f"/>
     <use xlink:href="#DejaVuSans-41" x="76.960938"/>
     <use xlink:href="#DejaVuSans-53" x="145.369141"/>
     <use xlink:href="#DejaVuSans-49" x="208.845703"/>
     <use xlink:href="#DejaVuSans-53" x="238.337891"/>
    </g>
   </g>
   <g id="text_19">
    <!-- 17.9% -->
    <g style="fill: #ffffff" transform="translate(672.749589 301.276493) scale(0.1 -0.1)">
     <defs>
      <path id="DejaVuSans-Bold-39" d="M 641 103 
L 641 966 
Q 928 831 1190 764 
Q 1453 697 1709 697 
Q 2247 697 2547 995 
Q 2847 1294 2900 1881 
Q 2688 1725 2447 1647 
Q 2206 1569 1925 1569 
Q 1209 1569 770 1986 
Q 331 2403 331 3084 
Q 331 3838 820 4291 
Q 1309 4744 2131 4744 
Q 3044 4744 3544 4128 
Q 4044 3513 4044 2388 
Q 4044 1231 3459 570 
Q 2875 -91 1856 -91 
Q 1528 -91 1228 -42 
Q 928 6 641 103 
z
M 2125 2350 
Q 2441 2350 2600 2554 
Q 2759 2759 2759 3169 
Q 2759 3575 2600 3781 
Q 2441 3988 2125 3988 
Q 1809 3988 1650 3781 
Q 1491 3575 1491 3169 
Q 1491 2759 1650 2554 
Q 1809 2350 2125 2350 
z
" transform="scale(0.015625)"/>
     </defs>
     <use xlink:href="#DejaVuSans-Bold-31"/>
     <use xlink:href="#DejaVuSans-Bold-37" x="69.580078"/>
     <use xlink:href="#DejaVuSans-Bold-2e" x="139.160156"/>
     <use xlink:href="#DejaVuSans-Bold-39" x="177.148438"/>
     <use xlink:href="#DejaVuSans-Bold-25" x="246.728516"/>
    </g>
   </g>
   <g id="text_20">
    <!-- CARDIA -->
    <g transform="translate(796.127129 202.230201) scale(0.11 -0.11)">
     <use xlink:href="#DejaVuSans-43"/>
     <use xlink:href="#DejaVuSans-41" x="69.824219"/>
     <use xlink:href="#DejaVuSans-52" x="138.232422"/>
     <use xlink:href="#DejaVuSans-44" x="207.714844"/>
     <use xlink:href="#DejaVuSans-49" x="284.716797"/>
     <use xlink:href="#DejaVuSans-41" x="314.208984"/>
    </g>
   </g>
   <g id="text_21">
    <!-- 15.3% -->
    <g style="fill: #ffffff" transform="translate(703.533396 215.376333) scale(0.1 -0.1)">
     <use xlink:href="#DejaVuSans-Bold-31"/>
     <use xlink:href="#DejaVuSans-Bold-35" x="69.580078"/>
     <use xlink:href="#DejaVuSans-Bold-2e" x="139.160156"/>
     <use xlink:href="#DejaVuSans-Bold-33" x="177.148438"/>
     <use xlink:href="#DejaVuSans-Bold-25" x="246.728516"/>
    </g>
   </g>
   <g id="text_22">
    <!-- HABS -->
    <g transform="translate(739.036404 103.249103) scale(0.11 -0.11)">
     <use xlink:href="#DejaVuSans-48"/>
     <use xlink:href="#DejaVuSans-41" x="75.195312"/>
     <use xlink:href="#DejaVuSans-42" x="143.603516"/>
     <use xlink:href="#DejaVuSans-53" x="210.457031"/>
    </g>
   </g>
   <g id="text_23">
    <!-- 6.8% -->
    <g style="fill: #ffffff" transform="translate(675.871907 161.386643) scale(0.1 -0.1)">
     <defs>
      <path id="DejaVuSans-Bold-38" d="M 2228 2088 
Q 1891 2088 1709 1903 
Q 1528 1719 1528 1375 
Q 1528 1031 1709 848 
Q 1891 666 2228 666 
Q 2563 666 2741 848 
Q 2919 1031 2919 1375 
Q 2919 1722 2741 1905 
Q 2563 2088 2228 2088 
z
M 1350 2484 
Q 925 2613 709 2878 
Q 494 3144 494 3541 
Q 494 4131 934 4440 
Q 1375 4750 2228 4750 
Q 3075 4750 3515 4442 
Q 3956 4134 3956 3541 
Q 3956 3144 3739 2878 
Q 3522 2613 3097 2484 
Q 3572 2353 3814 2058 
Q 4056 1763 4056 1313 
Q 4056 619 3595 264 
Q 3134 -91 2228 -91 
Q 1319 -91 855 264 
Q 391 619 391 1313 
Q 391 1763 633 2058 
Q 875 2353 1350 2484 
z
M 1631 3419 
Q 1631 3141 1786 2991 
Q 1941 2841 2228 2841 
Q 2509 2841 2662 2991 
Q 2816 3141 2816 3419 
Q 2816 3697 2662 3845 
Q 2509 3994 2228 3994 
Q 1941 3994 1786 3844 
Q 1631 3694 1631 3419 
z
" transform="scale(0.015625)"/>
     </defs>
     <use xlink:href="#DejaVuSans-Bold-36"/>
     <use xlink:href="#DejaVuSans-Bold-2e" x="69.580078"/>
     <use xlink:href="#DejaVuSans-Bold-38" x="107.568359"/>
     <use xlink:href="#DejaVuSans-Bold-25" x="177.148438"/>
    </g>
   </g>
   <g id="text_24">
    <!-- PENN -->
    <g transform="translate(693.718783 75.903675) scale(0.11 -0.11)">
     <use xlink:href="#DejaVuSans-50"/>
     <use xlink:href="#DejaVuSans-45" x="60.302734"/>
     <use xlink:href="#DejaVuSans-4e" x="123.486328"/>
     <use xlink:href="#DejaVuSans-4e" x="198.291016"/>
    </g>
   </g>
   <g id="text_25">
    <!-- 3.2% -->
    <g style="fill: #ffffff" transform="translate(651.153204 146.470955) scale(0.1 -0.1)">
     <use xlink:href="#DejaVuSans-Bold-33"/>
     <use xlink:href="#DejaVuSans-Bold-2e" x="69.580078"/>
     <use xlink:href="#DejaVuSans-Bold-32" x="107.568359"/>
     <use xlink:href="#DejaVuSans-Bold-25" x="177.148438"/>
    </g>
   </g>
   <g id="text_26">
    <!-- AIBL -->
    <g transform="translate(663.795405 66.913646) scale(0.11 -0.11)">
     <use xlink:href="#DejaVuSans-41"/>
     <use xlink:href="#DejaVuSans-49" x="68.408203"/>
     <use xlink:href="#DejaVuSans-42" x="97.900391"/>
     <use xlink:href="#DejaVuSans-4c" x="166.503906"/>
    </g>
   </g>
   <g id="text_27">
    <!-- 2.7% -->
    <g style="fill: #ffffff" transform="translate(634.831362 141.567303) scale(0.1 -0.1)">
     <use xlink:href="#DejaVuSans-Bold-32"/>
     <use xlink:href="#DejaVuSans-Bold-2e" x="69.580078"/>
     <use xlink:href="#DejaVuSans-Bold-37" x="107.568359"/>
     <use xlink:href="#DejaVuSans-Bold-25" x="177.148438"/>
    </g>
   </g>
   <g id="text_28">
    <!-- BLSA -->
    <g transform="translate(640.221134 63.877511) scale(0.11 -0.11)">
     <use xlink:href="#DejaVuSans-42"/>
     <use xlink:href="#DejaVuSans-4c" x="68.603516"/>
     <use xlink:href="#DejaVuSans-53" x="124.316406"/>
     <use xlink:href="#DejaVuSans-41" x="189.667969"/>
    </g>
   </g>
   <g id="text_29">
    <!-- 1.8% -->
    <g style="fill: #ffffff" transform="translate(621.972668 139.91123) scale(0.1 -0.1)">
     <use xlink:href="#DejaVuSans-Bold-31"/>
     <use xlink:href="#DejaVuSans-Bold-2e" x="69.580078"/>
     <use xlink:href="#DejaVuSans-Bold-38" x="107.568359"/>
     <use xlink:href="#DejaVuSans-Bold-25" x="177.148438"/>
    </g>
   </g>
   <g id="text_30">
    <!-- SPARE-AD -->
    <g transform="translate(594.130526 17.077969) scale(0.13 -0.13)">
     <defs>
      <path id="DejaVuSans-Bold-53" d="M 3834 4519 
L 3834 3531 
Q 3450 3703 3084 3790 
Q 2719 3878 2394 3878 
Q 1963 3878 1756 3759 
Q 1550 3641 1550 3391 
Q 1550 3203 1689 3098 
Q 1828 2994 2194 2919 
L 2706 2816 
Q 3484 2659 3812 2340 
Q 4141 2022 4141 1434 
Q 4141 663 3683 286 
Q 3225 -91 2284 -91 
Q 1841 -91 1394 -6 
Q 947 78 500 244 
L 500 1259 
Q 947 1022 1364 901 
Q 1781 781 2169 781 
Q 2563 781 2772 912 
Q 2981 1044 2981 1288 
Q 2981 1506 2839 1625 
Q 2697 1744 2272 1838 
L 1806 1941 
Q 1106 2091 782 2419 
Q 459 2747 459 3303 
Q 459 4000 909 4375 
Q 1359 4750 2203 4750 
Q 2588 4750 2994 4692 
Q 3400 4634 3834 4519 
z
" transform="scale(0.015625)"/>
      <path id="DejaVuSans-Bold-50" d="M 588 4666 
L 2584 4666 
Q 3475 4666 3951 4270 
Q 4428 3875 4428 3144 
Q 4428 2409 3951 2014 
Q 3475 1619 2584 1619 
L 1791 1619 
L 1791 0 
L 588 0 
L 588 4666 
z
M 1791 3794 
L 1791 2491 
L 2456 2491 
Q 2806 2491 2997 2661 
Q 3188 2831 3188 3144 
Q 3188 3456 2997 3625 
Q 2806 3794 2456 3794 
L 1791 3794 
z
" transform="scale(0.015625)"/>
      <path id="DejaVuSans-Bold-41" d="M 3419 850 
L 1538 850 
L 1241 0 
L 31 0 
L 1759 4666 
L 3194 4666 
L 4922 0 
L 3713 0 
L 3419 850 
z
M 1838 1716 
L 3116 1716 
L 2478 3572 
L 1838 1716 
z
" transform="scale(0.015625)"/>
      <path id="DejaVuSans-Bold-45" d="M 588 4666 
L 3834 4666 
L 3834 3756 
L 1791 3756 
L 1791 2888 
L 3713 2888 
L 3713 1978 
L 1791 1978 
L 1791 909 
L 3903 909 
L 3903 0 
L 588 0 
L 588 4666 
z
" transform="scale(0.015625)"/>
      <path id="DejaVuSans-Bold-2d" d="M 347 2297 
L 2309 2297 
L 2309 1388 
L 347 1388 
L 347 2297 
z
" transform="scale(0.015625)"/>
      <path id="DejaVuSans-Bold-44" d="M 1791 3756 
L 1791 909 
L 2222 909 
Q 2959 909 3348 1275 
Q 3738 1641 3738 2338 
Q 3738 3031 3350 3393 
Q 2963 3756 2222 3756 
L 1791 3756 
z
M 588 4666 
L 1856 4666 
Q 2919 4666 3439 4514 
Q 3959 4363 4331 4000 
Q 4659 3684 4818 3271 
Q 4978 2859 4978 2338 
Q 4978 1809 4818 1395 
Q 4659 981 4331 666 
Q 3956 303 3431 151 
Q 2906 0 1856 0 
L 588 0 
L 588 4666 
z
" transform="scale(0.015625)"/>
     </defs>
     <use xlink:href="#DejaVuSans-Bold-53"/>
     <use xlink:href="#DejaVuSans-Bold-50" x="72.021484"/>
     <use xlink:href="#DejaVuSans-Bold-41" x="136.1875"/>
     <use xlink:href="#DejaVuSans-Bold-52" x="213.580078"/>
     <use xlink:href="#DejaVuSans-Bold-45" x="290.582031"/>
     <use xlink:href="#DejaVuSans-Bold-2d" x="358.892578"/>
     <use xlink:href="#DejaVuSans-Bold-41" x="400.396484"/>
     <use xlink:href="#DejaVuSans-Bold-44" x="477.789062"/>
    </g>
    <!-- (n=2465) -->
    <g transform="translate(596.47662 31.635125) scale(0.13 -0.13)">
     <use xlink:href="#DejaVuSans-Bold-28"/>
     <use xlink:href="#DejaVuSans-Bold-6e" x="45.703125"/>
     <use xlink:href="#DejaVuSans-Bold-3d" x="116.894531"/>
     <use xlink:href="#DejaVuSans-Bold-32" x="200.683594"/>
     <use xlink:href="#DejaVuSans-Bold-34" x="270.263672"/>
     <use xlink:href="#DejaVuSans-Bold-36" x="339.84375"/>
     <use xlink:href="#DejaVuSans-Bold-35" x="409.423828"/>
     <use xlink:href="#DejaVuSans-Bold-29" x="479.003906"/>
    </g>
   </g>
  </g>
  <g id="axes_3">
   <g id="patch_16">
    <path d="M 1058.550902 75.852788 
C 1037.549587 75.852788 1016.77182 80.180518 997.51695 88.56534 
C 978.262081 96.950162 960.940026 109.213572 946.634029 124.588672 
C 932.328032 139.963771 921.342653 158.12324 914.36487 177.931464 
C 907.387086 197.739689 904.565448 218.774974 906.076407 239.721865 
C 907.587367 260.668755 913.398757 281.081315 923.14716 299.683032 
C 932.895562 318.284749 946.373444 334.679612 962.737958 347.842359 
C 979.102471 361.005107 998.005234 370.655517 1018.264149 376.190097 
C 1038.523065 381.724676 1059.706843 383.025599 1080.490743 380.011512 
L 1058.550902 228.723442 
z
" style="fill: #8dd3c7"/>
   </g>
   <g id="patch_17">
    <path d="M 1080.490743 380.011512 
C 1109.019532 375.874258 1135.804539 363.750553 1157.739835 345.046235 
C 1179.67513 326.341917 1195.878769 301.809023 1204.471815 274.292332 
L 1058.550902 228.723442 
z
" style="fill: #bebada"/>
   </g>
   <g id="patch_18">
    <path d="M 1204.471815 274.292332 
C 1211.785396 250.87275 1213.354531 226.033048 1209.04618 201.879302 
C 1204.737829 177.725557 1194.677296 154.960262 1179.717581 135.513612 
L 1058.550902 228.723442 
z
" style="fill: #80b1d3"/>
   </g>
   <g id="patch_19">
    <path d="M 1179.717581 135.513612 
C 1173.058767 126.85759 1165.491518 118.939983 1157.145521 111.896486 
C 1148.799525 104.852988 1139.722734 98.72407 1130.070711 93.614769 
L 1058.550902 228.723442 
z
" style="fill: #b3de69"/>
   </g>
   <g id="patch_20">
    <path d="M 1130.070711 93.614769 
C 1125.477896 91.183561 1120.764099 88.988123 1115.947684 87.037006 
C 1111.131268 85.085889 1106.218495 83.381631 1101.228504 81.930871 
L 1058.550902 228.723442 
z
" style="fill: #d9d9d9"/>
   </g>
   <g id="patch_21">
    <path d="M 1101.228504 81.930871 
C 1097.112046 80.734076 1092.947067 79.710966 1088.744612 78.864253 
C 1084.542158 78.01754 1080.305947 77.347974 1076.047213 76.85733 
L 1058.550902 228.723442 
z
" style="fill: #ccebc5"/>
   </g>
   <g id="patch_22">
    <path d="M 1076.047213 76.85733 
C 1073.143759 76.522827 1070.23131 76.271657 1067.313457 76.10413 
C 1064.395604 75.936603 1061.473546 75.852788 1058.550887 75.852788 
L 1058.550902 228.723442 
z
" style="fill: #ffed6f"/>
   </g>
   <g id="matplotlib.axis_5"/>
   <g id="matplotlib.axis_6"/>
   <g id="text_31">
    <!-- ADNI -->
    <g transform="translate(863.359895 243.857019) scale(0.11 -0.11)">
     <use xlink:href="#DejaVuSans-41"/>
     <use xlink:href="#DejaVuSans-44" x="68.408203"/>
     <use xlink:href="#DejaVuSans-4e" x="145.410156"/>
     <use xlink:href="#DejaVuSans-49" x="220.214844"/>
    </g>
   </g>
   <g id="text_32">
    <!-- 52.3% -->
    <g style="fill: #ffffff" transform="translate(949.720111 238.08187) scale(0.1 -0.1)">
     <use xlink:href="#DejaVuSans-Bold-35"/>
     <use xlink:href="#DejaVuSans-Bold-32" x="69.580078"/>
     <use xlink:href="#DejaVuSans-Bold-2e" x="139.160156"/>
     <use xlink:href="#DejaVuSans-Bold-33" x="177.148438"/>
     <use xlink:href="#DejaVuSans-Bold-25" x="246.728516"/>
    </g>
   </g>
   <g id="text_33">
    <!-- OASIS -->
    <g transform="translate(1167.658728 359.713827) scale(0.11 -0.11)">
     <use xlink:href="#DejaVuSans-4f"/>
     <use xlink:href="#DejaVuSans-41" x="76.960938"/>
     <use xlink:href="#DejaVuSans-53" x="145.369141"/>
     <use xlink:href="#DejaVuSans-49" x="208.845703"/>
     <use xlink:href="#DejaVuSans-53" x="238.337891"/>
    </g>
   </g>
   <g id="text_34">
    <!-- 17.9% -->
    <g style="fill: #ffffff" transform="translate(1100.718168 301.276493) scale(0.1 -0.1)">
     <use xlink:href="#DejaVuSans-Bold-31"/>
     <use xlink:href="#DejaVuSans-Bold-37" x="69.580078"/>
     <use xlink:href="#DejaVuSans-Bold-2e" x="139.160156"/>
     <use xlink:href="#DejaVuSans-Bold-39" x="177.148438"/>
     <use xlink:href="#DejaVuSans-Bold-25" x="246.728516"/>
    </g>
   </g>
   <g id="text_35">
    <!-- CARDIA -->
    <g transform="translate(1224.095708 202.230201) scale(0.11 -0.11)">
     <use xlink:href="#DejaVuSans-43"/>
     <use xlink:href="#DejaVuSans-41" x="69.824219"/>
     <use xlink:href="#DejaVuSans-52" x="138.232422"/>
     <use xlink:href="#DejaVuSans-44" x="207.714844"/>
     <use xlink:href="#DejaVuSans-49" x="284.716797"/>
     <use xlink:href="#DejaVuSans-41" x="314.208984"/>
    </g>
   </g>
   <g id="text_36">
    <!-- 15.3% -->
    <g style="fill: #ffffff" transform="translate(1131.501975 215.376333) scale(0.1 -0.1)">
     <use xlink:href="#DejaVuSans-Bold-31"/>
     <use xlink:href="#DejaVuSans-Bold-35" x="69.580078"/>
     <use xlink:href="#DejaVuSans-Bold-2e" x="139.160156"/>
     <use xlink:href="#DejaVuSans-Bold-33" x="177.148438"/>
     <use xlink:href="#DejaVuSans-Bold-25" x="246.728516"/>
    </g>
   </g>
   <g id="text_37">
    <!-- HABS -->
    <g transform="translate(1167.004983 103.249103) scale(0.11 -0.11)">
     <use xlink:href="#DejaVuSans-48"/>
     <use xlink:href="#DejaVuSans-41" x="75.195312"/>
     <use xlink:href="#DejaVuSans-42" x="143.603516"/>
     <use xlink:href="#DejaVuSans-53" x="210.457031"/>
    </g>
   </g>
   <g id="text_38">
    <!-- 6.8% -->
    <g style="fill: #ffffff" transform="translate(1103.840486 161.386643) scale(0.1 -0.1)">
     <use xlink:href="#DejaVuSans-Bold-36"/>
     <use xlink:href="#DejaVuSans-Bold-2e" x="69.580078"/>
     <use xlink:href="#DejaVuSans-Bold-38" x="107.568359"/>
     <use xlink:href="#DejaVuSans-Bold-25" x="177.148438"/>
    </g>
   </g>
   <g id="text_39">
    <!-- PENN -->
    <g transform="translate(1121.687362 75.903675) scale(0.11 -0.11)">
     <use xlink:href="#DejaVuSans-50"/>
     <use xlink:href="#DejaVuSans-45" x="60.302734"/>
     <use xlink:href="#DejaVuSans-4e" x="123.486328"/>
     <use xlink:href="#DejaVuSans-4e" x="198.291016"/>
    </g>
   </g>
   <g id="text_40">
    <!-- 3.2% -->
    <g style="fill: #ffffff" transform="translate(1079.121783 146.470955) scale(0.1 -0.1)">
     <use xlink:href="#DejaVuSans-Bold-33"/>
     <use xlink:href="#DejaVuSans-Bold-2e" x="69.580078"/>
     <use xlink:href="#DejaVuSans-Bold-32" x="107.568359"/>
     <use xlink:href="#DejaVuSans-Bold-25" x="177.148438"/>
    </g>
   </g>
   <g id="text_41">
    <!-- AIBL -->
    <g transform="translate(1091.763983 66.913646) scale(0.11 -0.11)">
     <use xlink:href="#DejaVuSans-41"/>
     <use xlink:href="#DejaVuSans-49" x="68.408203"/>
     <use xlink:href="#DejaVuSans-42" x="97.900391"/>
     <use xlink:href="#DejaVuSans-4c" x="166.503906"/>
    </g>
   </g>
   <g id="text_42">
    <!-- 2.7% -->
    <g style="fill: #ffffff" transform="translate(1062.799941 141.567303) scale(0.1 -0.1)">
     <use xlink:href="#DejaVuSans-Bold-32"/>
     <use xlink:href="#DejaVuSans-Bold-2e" x="69.580078"/>
     <use xlink:href="#DejaVuSans-Bold-37" x="107.568359"/>
     <use xlink:href="#DejaVuSans-Bold-25" x="177.148438"/>
    </g>
   </g>
   <g id="text_43">
    <!-- BLSA -->
    <g transform="translate(1068.189712 63.877511) scale(0.11 -0.11)">
     <use xlink:href="#DejaVuSans-42"/>
     <use xlink:href="#DejaVuSans-4c" x="68.603516"/>
     <use xlink:href="#DejaVuSans-53" x="124.316406"/>
     <use xlink:href="#DejaVuSans-41" x="189.667969"/>
    </g>
   </g>
   <g id="text_44">
    <!-- 1.8% -->
    <g style="fill: #ffffff" transform="translate(1049.941247 139.91123) scale(0.1 -0.1)">
     <use xlink:href="#DejaVuSans-Bold-31"/>
     <use xlink:href="#DejaVuSans-Bold-2e" x="69.580078"/>
     <use xlink:href="#DejaVuSans-Bold-38" x="107.568359"/>
     <use xlink:href="#DejaVuSans-Bold-25" x="177.148438"/>
    </g>
   </g>
   <g id="text_45">
    <!-- SPARE-BA -->
    <g transform="translate(1022.540902 17.077969) scale(0.13 -0.13)">
     <defs>
      <path id="DejaVuSans-Bold-42" d="M 2456 2859 
Q 2741 2859 2887 2984 
Q 3034 3109 3034 3353 
Q 3034 3594 2887 3720 
Q 2741 3847 2456 3847 
L 1791 3847 
L 1791 2859 
L 2456 2859 
z
M 2497 819 
Q 2859 819 3042 972 
Q 3225 1125 3225 1434 
Q 3225 1738 3044 1889 
Q 2863 2041 2497 2041 
L 1791 2041 
L 1791 819 
L 2497 819 
z
M 3616 2497 
Q 4003 2384 4215 2081 
Q 4428 1778 4428 1338 
Q 4428 663 3972 331 
Q 3516 0 2584 0 
L 588 0 
L 588 4666 
L 2394 4666 
Q 3366 4666 3802 4372 
Q 4238 4078 4238 3431 
Q 4238 3091 4078 2852 
Q 3919 2613 3616 2497 
z
" transform="scale(0.015625)"/>
     </defs>
     <use xlink:href="#DejaVuSans-Bold-53"/>
     <use xlink:href="#DejaVuSans-Bold-50" x="72.021484"/>
     <use xlink:href="#DejaVuSans-Bold-41" x="136.1875"/>
     <use xlink:href="#DejaVuSans-Bold-52" x="213.580078"/>
     <use xlink:href="#DejaVuSans-Bold-45" x="290.582031"/>
     <use xlink:href="#DejaVuSans-Bold-2d" x="358.892578"/>
     <use xlink:href="#DejaVuSans-Bold-42" x="400.396484"/>
     <use xlink:href="#DejaVuSans-Bold-41" x="476.617188"/>
    </g>
    <!-- (n=2465) -->
    <g transform="translate(1024.445198 31.635125) scale(0.13 -0.13)">
     <use xlink:href="#DejaVuSans-Bold-28"/>
     <use xlink:href="#DejaVuSans-Bold-6e" x="45.703125"/>
     <use xlink:href="#DejaVuSans-Bold-3d" x="116.894531"/>
     <use xlink:href="#DejaVuSans-Bold-32" x="200.683594"/>
     <use xlink:href="#DejaVuSans-Bold-34" x="270.263672"/>
     <use xlink:href="#DejaVuSans-Bold-36" x="339.84375"/>
     <use xlink:href="#DejaVuSans-Bold-35" x="409.423828"/>
     <use xlink:href="#DejaVuSans-Bold-29" x="479.003906"/>
    </g>
   </g>
  </g>
  <g id="axes_4">
   <g id="patch_23">
    <path d="M 355.484397 652.496383 
C 355.484397 632.421593 351.530102 612.542005 343.847812 593.995317 
C 336.165522 575.448629 324.90464 558.595528 310.70962 544.400507 
C 296.514599 530.205487 279.661498 518.944605 261.11481 511.262315 
C 242.568123 503.580026 222.688534 499.62573 202.613744 499.62573 
C 182.538954 499.62573 162.659365 503.580026 144.112678 511.262315 
C 125.56599 518.944605 108.712889 530.205487 94.517868 544.400507 
C 80.322848 558.595528 69.061966 575.448629 61.379676 593.995317 
C 53.697386 612.542005 49.743091 632.421593 49.743091 652.496383 
C 49.743091 672.571173 53.697386 692.450762 61.379676 710.997449 
C 69.061966 729.544137 80.322848 746.397238 94.517868 760.592259 
C 108.712889 774.787279 125.56599 786.048161 144.112678 793.730451 
C 162.659365 801.412741 182.538954 805.367037 202.613744 805.367037 
C 222.688534 805.367037 242.568123 801.412741 261.11481 793.730451 
C 279.661498 786.048161 296.514599 774.787279 310.70962 760.592259 
C 324.90464 746.397238 336.165522 729.544137 343.847812 710.997449 
C 351.530102 692.450762 355.484397 672.571173 355.484397 652.496383 
M 202.613744 652.496383 
z
" style="fill: #8dd3c7"/>
   </g>
   <g id="matplotlib.axis_7"/>
   <g id="matplotlib.axis_8"/>
   <g id="text_46">
    <!-- ADNI -->
    <g transform="translate(175.144681 823.689414) scale(0.11 -0.11)">
     <use xlink:href="#DejaVuSans-41"/>
     <use xlink:href="#DejaVuSans-44" x="68.408203"/>
     <use xlink:href="#DejaVuSans-4e" x="145.410156"/>
     <use xlink:href="#DejaVuSans-49" x="220.214844"/>
    </g>
   </g>
   <g id="text_47">
    <!-- 100.0% -->
    <g style="fill: #ffffff" transform="translate(181.788744 746.97815) scale(0.1 -0.1)">
     <defs>
      <path id="DejaVuSans-Bold-30" d="M 2944 2338 
Q 2944 3213 2780 3570 
Q 2616 3928 2228 3928 
Q 1841 3928 1675 3570 
Q 1509 3213 1509 2338 
Q 1509 1453 1675 1090 
Q 1841 728 2228 728 
Q 2613 728 2778 1090 
Q 2944 1453 2944 2338 
z
M 4147 2328 
Q 4147 1169 3647 539 
Q 3147 -91 2228 -91 
Q 1306 -91 806 539 
Q 306 1169 306 2328 
Q 306 3491 806 4120 
Q 1306 4750 2228 4750 
Q 3147 4750 3647 4120 
Q 4147 3491 4147 2328 
z
" transform="scale(0.015625)"/>
     </defs>
     <use xlink:href="#DejaVuSans-Bold-31"/>
     <use xlink:href="#DejaVuSans-Bold-30" x="69.580078"/>
     <use xlink:href="#DejaVuSans-Bold-30" x="139.160156"/>
     <use xlink:href="#DejaVuSans-Bold-2e" x="208.740234"/>
     <use xlink:href="#DejaVuSans-Bold-30" x="246.728516"/>
     <use xlink:href="#DejaVuSans-Bold-25" x="316.308594"/>
    </g>
   </g>
   <g id="text_48">
    <!-- ADAS -->
    <g transform="translate(182.475931 440.85091) scale(0.13 -0.13)">
     <use xlink:href="#DejaVuSans-Bold-41"/>
     <use xlink:href="#DejaVuSans-Bold-44" x="77.392578"/>
     <use xlink:href="#DejaVuSans-Bold-41" x="160.400391"/>
     <use xlink:href="#DejaVuSans-Bold-53" x="237.792969"/>
    </g>
    <!-- (n=1240) -->
    <g transform="translate(168.508041 455.408066) scale(0.13 -0.13)">
     <use xlink:href="#DejaVuSans-Bold-28"/>
     <use xlink:href="#DejaVuSans-Bold-6e" x="45.703125"/>
     <use xlink:href="#DejaVuSans-Bold-3d" x="116.894531"/>
     <use xlink:href="#DejaVuSans-Bold-31" x="200.683594"/>
     <use xlink:href="#DejaVuSans-Bold-32" x="270.263672"/>
     <use xlink:href="#DejaVuSans-Bold-34" x="339.84375"/>
     <use xlink:href="#DejaVuSans-Bold-30" x="409.423828"/>
     <use xlink:href="#DejaVuSans-Bold-29" x="479.003906"/>
    </g>
   </g>
  </g>
  <g id="axes_5">
   <g id="patch_24">
    <path d="M 630.582323 499.62573 
C 605.659129 499.62573 581.109975 505.720741 559.081002 517.377925 
C 537.052029 529.035108 518.204445 545.904569 504.185947 566.511542 
C 490.16745 587.118514 481.39881 610.844472 478.646601 635.61524 
C 475.894391 660.386007 479.241222 685.45808 488.394505 708.639603 
C 497.547788 731.821126 512.232784 752.416296 531.165698 768.624637 
C 550.098613 784.832979 572.711166 796.167993 597.02652 801.638747 
C 621.341874 807.109501 646.630193 806.551789 670.680717 800.014367 
C 694.731241 793.476944 716.822083 781.156035 735.022014 764.12876 
L 630.582323 652.496383 
z
" style="fill: #8dd3c7"/>
   </g>
   <g id="patch_25">
    <path d="M 735.022014 764.12876 
C 761.301811 739.54222 778.073873 706.448259 782.363244 670.716942 
C 786.652614 634.985625 778.189745 598.862334 758.475745 568.754463 
L 630.582323 652.496383 
z
" style="fill: #fb8072"/>
   </g>
   <g id="patch_26">
    <path d="M 758.475745 568.754463 
C 750.449107 556.495916 740.701535 545.454827 729.532561 535.970476 
C 718.363587 526.486124 705.888798 518.656664 692.49153 512.722685 
L 630.582323 652.496383 
z
" style="fill: #b3de69"/>
   </g>
   <g id="patch_27">
    <path d="M 692.49153 512.722685 
C 687.559055 510.53797 682.514391 508.61588 677.378715 506.964481 
C 672.243039 505.313083 667.023546 503.934691 661.742148 502.835092 
L 630.582323 652.496383 
z
" style="fill: #bc80bd"/>
   </g>
   <g id="patch_28">
    <path d="M 661.742148 502.835092 
C 656.620863 501.768829 651.448222 500.966137 646.244644 500.430186 
C 641.041065 499.894234 635.813404 499.625729 630.582298 499.62573 
L 630.582323 652.496383 
z
" style="fill: #ffed6f"/>
   </g>
   <g id="matplotlib.axis_9"/>
   <g id="matplotlib.axis_10"/>
   <g id="text_49">
    <!-- ADNI -->
    <g transform="translate(446.706661 717.289238) scale(0.11 -0.11)">
     <use xlink:href="#DejaVuSans-41"/>
     <use xlink:href="#DejaVuSans-44" x="68.408203"/>
     <use xlink:href="#DejaVuSans-4e" x="145.410156"/>
     <use xlink:href="#DejaVuSans-49" x="220.214844"/>
    </g>
   </g>
   <g id="text_50">
    <!-- 62.0% -->
    <g style="fill: #ffffff" transform="translate(527.923538 688.94169) scale(0.1 -0.1)">
     <use xlink:href="#DejaVuSans-Bold-36"/>
     <use xlink:href="#DejaVuSans-Bold-32" x="69.580078"/>
     <use xlink:href="#DejaVuSans-Bold-2e" x="139.160156"/>
     <use xlink:href="#DejaVuSans-Bold-30" x="177.148438"/>
     <use xlink:href="#DejaVuSans-Bold-25" x="246.728516"/>
    </g>
   </g>
   <g id="text_51">
    <!-- OASIS -->
    <g transform="translate(797.541336 675.57431) scale(0.11 -0.11)">
     <use xlink:href="#DejaVuSans-4f"/>
     <use xlink:href="#DejaVuSans-41" x="76.960938"/>
     <use xlink:href="#DejaVuSans-53" x="145.369141"/>
     <use xlink:href="#DejaVuSans-49" x="208.845703"/>
     <use xlink:href="#DejaVuSans-53" x="238.337891"/>
    </g>
   </g>
   <g id="text_52">
    <!-- 22.3% -->
    <g style="fill: #ffffff" transform="translate(704.304782 666.188093) scale(0.1 -0.1)">
     <use xlink:href="#DejaVuSans-Bold-32"/>
     <use xlink:href="#DejaVuSans-Bold-32" x="69.580078"/>
     <use xlink:href="#DejaVuSans-Bold-2e" x="139.160156"/>
     <use xlink:href="#DejaVuSans-Bold-33" x="177.148438"/>
     <use xlink:href="#DejaVuSans-Bold-25" x="246.728516"/>
    </g>
   </g>
   <g id="text_53">
    <!-- HABS -->
    <g transform="translate(739.427585 527.353197) scale(0.11 -0.11)">
     <use xlink:href="#DejaVuSans-48"/>
     <use xlink:href="#DejaVuSans-41" x="75.195312"/>
     <use xlink:href="#DejaVuSans-42" x="143.603516"/>
     <use xlink:href="#DejaVuSans-53" x="210.457031"/>
    </g>
   </g>
   <g id="text_54">
    <!-- 9.1% -->
    <g style="fill: #ffffff" transform="translate(676.085278 585.340214) scale(0.1 -0.1)">
     <use xlink:href="#DejaVuSans-Bold-39"/>
     <use xlink:href="#DejaVuSans-Bold-2e" x="69.580078"/>
     <use xlink:href="#DejaVuSans-Bold-31" x="107.568359"/>
     <use xlink:href="#DejaVuSans-Bold-25" x="177.148438"/>
    </g>
   </g>
   <g id="text_55">
    <!-- AIBL -->
    <g transform="translate(682.058354 495.446604) scale(0.11 -0.11)">
     <use xlink:href="#DejaVuSans-41"/>
     <use xlink:href="#DejaVuSans-49" x="68.408203"/>
     <use xlink:href="#DejaVuSans-42" x="97.900391"/>
     <use xlink:href="#DejaVuSans-4c" x="166.503906"/>
    </g>
   </g>
   <g id="text_56">
    <!-- 3.4% -->
    <g style="fill: #ffffff" transform="translate(644.792971 567.936617) scale(0.1 -0.1)">
     <use xlink:href="#DejaVuSans-Bold-33"/>
     <use xlink:href="#DejaVuSans-Bold-2e" x="69.580078"/>
     <use xlink:href="#DejaVuSans-Bold-34" x="107.568359"/>
     <use xlink:href="#DejaVuSans-Bold-25" x="177.148438"/>
    </g>
   </g>
   <g id="text_57">
    <!-- PENN -->
    <g transform="translate(647.810876 488.258878) scale(0.11 -0.11)">
     <use xlink:href="#DejaVuSans-50"/>
     <use xlink:href="#DejaVuSans-45" x="60.302734"/>
     <use xlink:href="#DejaVuSans-4e" x="123.486328"/>
     <use xlink:href="#DejaVuSans-4e" x="198.291016"/>
    </g>
   </g>
   <g id="text_58">
    <!-- 3.3% -->
    <g style="fill: #ffffff" transform="translate(626.112528 564.01604) scale(0.1 -0.1)">
     <use xlink:href="#DejaVuSans-Bold-33"/>
     <use xlink:href="#DejaVuSans-Bold-2e" x="69.580078"/>
     <use xlink:href="#DejaVuSans-Bold-33" x="107.568359"/>
     <use xlink:href="#DejaVuSans-Bold-25" x="177.148438"/>
    </g>
   </g>
   <g id="text_59">
    <!-- MMSE -->
    <g transform="translate(608.523963 440.85091) scale(0.13 -0.13)">
     <defs>
      <path id="DejaVuSans-Bold-4d" d="M 588 4666 
L 2119 4666 
L 3181 2169 
L 4250 4666 
L 5778 4666 
L 5778 0 
L 4641 0 
L 4641 3413 
L 3566 897 
L 2803 897 
L 1728 3413 
L 1728 0 
L 588 0 
L 588 4666 
z
" transform="scale(0.015625)"/>
     </defs>
     <use xlink:href="#DejaVuSans-Bold-4d"/>
     <use xlink:href="#DejaVuSans-Bold-4d" x="99.511719"/>
     <use xlink:href="#DejaVuSans-Bold-53" x="199.023438"/>
     <use xlink:href="#DejaVuSans-Bold-45" x="271.044922"/>
    </g>
    <!-- (n=1959) -->
    <g transform="translate(596.47662 455.408066) scale(0.13 -0.13)">
     <use xlink:href="#DejaVuSans-Bold-28"/>
     <use xlink:href="#DejaVuSans-Bold-6e" x="45.703125"/>
     <use xlink:href="#DejaVuSans-Bold-3d" x="116.894531"/>
     <use xlink:href="#DejaVuSans-Bold-31" x="200.683594"/>
     <use xlink:href="#DejaVuSans-Bold-39" x="270.263672"/>
     <use xlink:href="#DejaVuSans-Bold-35" x="339.84375"/>
     <use xlink:href="#DejaVuSans-Bold-39" x="409.423828"/>
     <use xlink:href="#DejaVuSans-Bold-29" x="479.003906"/>
    </g>
   </g>
  </g>
 </g>
</svg>
